<svg width="548" height="150" viewBox="0 0 548 150" fill="none" xmlns="http://www.w3.org/2000/svg">
<path d="M37.344 149.726C32.16 149.726 27.296 148.734 22.752 146.75C18.272 144.766 14.304 142.014 10.848 138.494C7.456 134.91 4.8 130.814 2.88 126.206C0.96 121.534 0 116.542 0 111.23C0 105.982 0.928 101.054 2.784 96.4462C4.704 91.7742 7.36 87.6782 10.752 84.1582C14.208 80.6382 18.176 77.8862 22.656 75.9022C27.2 73.8542 32.096 72.8302 37.344 72.8302C41.952 72.8302 46.144 73.5022 49.92 74.8462C53.696 76.1902 57.344 78.3342 60.864 81.2782C61.44 81.7262 61.76 82.2702 61.824 82.9102C61.952 83.4862 61.888 84.0622 61.632 84.6382C61.376 85.1502 60.992 85.5342 60.48 85.7902C60.352 86.3022 60.032 86.6862 59.52 86.9422C59.008 87.1982 58.4 87.2942 57.696 87.2302C57.056 87.1662 56.416 86.8782 55.776 86.3662C53.28 84.1902 50.56 82.5902 47.616 81.5662C44.672 80.4782 41.248 79.9342 37.344 79.9342C33.184 79.9342 29.28 80.7662 25.632 82.4302C22.048 84.0942 18.88 86.3662 16.128 89.2462C13.376 92.1262 11.2 95.4542 9.6 99.2302C8.064 103.006 7.296 107.006 7.296 111.23C7.296 115.582 8.064 119.646 9.6 123.422C11.2 127.198 13.376 130.526 16.128 133.406C18.88 136.286 22.048 138.558 25.632 140.222C29.28 141.822 33.184 142.622 37.344 142.622C40.864 142.622 44.192 142.046 47.328 140.894C50.464 139.742 53.44 138.078 56.256 135.902C57.024 135.262 57.824 135.006 58.656 135.134C59.552 135.262 60.32 135.646 60.96 136.286C61.6 136.926 61.92 137.758 61.92 138.782C61.92 139.294 61.856 139.774 61.728 140.222C61.6 140.606 61.312 141.022 60.864 141.47C57.6 144.478 53.952 146.622 49.92 147.902C45.888 149.118 41.696 149.726 37.344 149.726ZM61.92 138.782L54.624 137.246V117.95H39.648C38.56 117.95 37.664 117.63 36.96 116.99C36.256 116.35 35.904 115.55 35.904 114.59C35.904 113.63 36.256 112.862 36.96 112.286C37.664 111.646 38.56 111.326 39.648 111.326H58.176C59.264 111.326 60.16 111.678 60.864 112.382C61.568 113.022 61.92 113.886 61.92 114.974V138.782Z" fill="#65C18C"/>
<path d="M95.6677 149.246C90.7397 149.246 86.3237 148.094 82.4197 145.79C78.5157 143.422 75.4117 140.222 73.1077 136.19C70.8678 132.158 69.7477 127.614 69.7477 122.558C69.7477 117.438 70.8997 112.862 73.2037 108.83C75.5717 104.798 78.7717 101.63 82.8037 99.3262C86.8357 96.9582 91.3797 95.7742 96.4357 95.7742C101.492 95.7742 106.004 96.9582 109.972 99.3262C114.004 101.63 117.172 104.798 119.476 108.83C121.844 112.862 123.06 117.438 123.124 122.558L120.148 124.862C120.148 129.47 119.06 133.63 116.884 137.342C114.772 140.99 111.86 143.902 108.148 146.078C104.5 148.19 100.34 149.246 95.6677 149.246ZM96.4357 142.526C100.148 142.526 103.444 141.662 106.324 139.934C109.268 138.206 111.572 135.838 113.236 132.83C114.964 129.758 115.828 126.334 115.828 122.558C115.828 118.718 114.964 115.294 113.236 112.286C111.572 109.278 109.268 106.91 106.324 105.182C103.444 103.39 100.148 102.494 96.4357 102.494C92.7877 102.494 89.4917 103.39 86.5477 105.182C83.6037 106.91 81.2677 109.278 79.5397 112.286C77.8117 115.294 76.9477 118.718 76.9477 122.558C76.9477 126.334 77.8117 129.758 79.5397 132.83C81.2677 135.838 83.6037 138.206 86.5477 139.934C89.4917 141.662 92.7877 142.526 96.4357 142.526ZM119.38 148.766C118.292 148.766 117.396 148.446 116.692 147.806C115.988 147.102 115.636 146.206 115.636 145.118V128.702L117.46 121.118L123.124 122.558V145.118C123.124 146.206 122.772 147.102 122.068 147.806C121.364 148.446 120.468 148.766 119.38 148.766Z" fill="#65C18C"/>
<path d="M140.573 116.414C140.765 112.446 141.788 108.894 143.645 105.758C145.565 102.622 148.028 100.158 151.036 98.3662C154.108 96.5742 157.501 95.6782 161.213 95.6782C164.157 95.6782 166.429 96.0942 168.029 96.9262C169.629 97.7582 170.237 98.9742 169.853 100.574C169.597 101.534 169.148 102.174 168.508 102.494C167.932 102.814 167.197 102.942 166.301 102.878C165.469 102.814 164.509 102.75 163.421 102.686C159.837 102.366 156.637 102.75 153.821 103.838C151.069 104.862 148.861 106.462 147.197 108.638C145.597 110.814 144.797 113.406 144.797 116.414H140.573ZM141.148 148.766C139.996 148.766 139.101 148.446 138.461 147.806C137.821 147.166 137.501 146.27 137.501 145.118V99.9022C137.501 98.7502 137.821 97.8542 138.461 97.2142C139.101 96.5742 139.996 96.2542 141.148 96.2542C142.3 96.2542 143.197 96.5742 143.837 97.2142C144.477 97.8542 144.797 98.7502 144.797 99.9022V145.118C144.797 146.27 144.477 147.166 143.837 147.806C143.197 148.446 142.3 148.766 141.148 148.766Z" fill="#65C18C"/>
<path d="M201.53 149.246C196.474 149.246 191.93 148.094 187.898 145.79C183.866 143.422 180.666 140.222 178.298 136.19C175.994 132.158 174.842 127.582 174.842 122.462C174.842 117.406 175.962 112.862 178.202 108.83C180.506 104.798 183.61 101.63 187.514 99.3262C191.418 96.9582 195.834 95.7742 200.762 95.7742C205.05 95.7742 208.922 96.7022 212.378 98.5582C215.834 100.35 218.618 102.75 220.73 105.758V77.5342C220.73 76.3822 221.082 75.4862 221.786 74.8462C222.49 74.1422 223.386 73.7902 224.474 73.7902C225.562 73.7902 226.458 74.1422 227.161 74.8462C227.866 75.4862 228.218 76.3822 228.218 77.5342V122.846C228.09 127.838 226.842 132.35 224.474 136.382C222.17 140.35 219.002 143.486 214.97 145.79C211.002 148.094 206.522 149.246 201.53 149.246ZM201.53 142.526C205.242 142.526 208.538 141.662 211.418 139.934C214.362 138.142 216.666 135.742 218.329 132.734C220.057 129.726 220.922 126.302 220.922 122.462C220.922 118.686 220.057 115.294 218.329 112.286C216.666 109.214 214.362 106.814 211.418 105.086C208.538 103.358 205.242 102.494 201.53 102.494C197.882 102.494 194.586 103.358 191.642 105.086C188.698 106.814 186.361 109.214 184.633 112.286C182.905 115.294 182.042 118.686 182.042 122.462C182.042 126.302 182.905 129.726 184.633 132.734C186.361 135.742 188.698 138.142 191.642 139.934C194.586 141.662 197.882 142.526 201.53 142.526Z" fill="#65C18C"/>
<path d="M269.309 149.246C264.125 149.246 259.516 148.126 255.484 145.886C251.516 143.582 248.381 140.414 246.077 136.382C243.837 132.35 242.717 127.742 242.717 122.558C242.717 117.31 243.773 112.702 245.885 108.734C248.061 104.702 251.036 101.534 254.812 99.2302C258.589 96.9262 262.94 95.7742 267.868 95.7742C272.733 95.7742 276.956 96.8942 280.54 99.1342C284.188 101.31 287.004 104.35 288.988 108.254C290.972 112.158 291.965 116.606 291.965 121.598C291.965 122.622 291.645 123.454 291.005 124.094C290.365 124.67 289.533 124.958 288.509 124.958H247.709V118.814H289.277L285.148 121.79C285.212 118.078 284.541 114.75 283.133 111.806C281.725 108.862 279.709 106.558 277.085 104.894C274.525 103.23 271.452 102.398 267.868 102.398C264.22 102.398 261.02 103.262 258.268 104.99C255.516 106.718 253.373 109.118 251.837 112.19C250.365 115.198 249.629 118.654 249.629 122.558C249.629 126.462 250.461 129.918 252.125 132.926C253.853 135.934 256.189 138.302 259.133 140.03C262.077 141.758 265.469 142.622 269.309 142.622C271.613 142.622 273.917 142.238 276.221 141.47C278.589 140.638 280.476 139.614 281.884 138.398C282.588 137.822 283.389 137.534 284.285 137.534C285.181 137.47 285.949 137.694 286.589 138.206C287.421 138.974 287.837 139.806 287.837 140.702C287.901 141.598 287.549 142.366 286.781 143.006C284.669 144.798 281.98 146.302 278.716 147.518C275.452 148.67 272.317 149.246 269.309 149.246Z" fill="#65C18C"/>
<path d="M349.493 148.766C348.405 148.766 347.509 148.414 346.805 147.71C346.101 147.006 345.749 146.142 345.749 145.118V120.158C345.749 116.19 344.981 112.926 343.445 110.366C341.973 107.806 339.925 105.886 337.301 104.606C334.741 103.326 331.829 102.686 328.565 102.686C325.429 102.686 322.581 103.294 320.021 104.51C317.525 105.726 315.541 107.39 314.069 109.502C312.597 111.614 311.861 114.014 311.861 116.702H306.581C306.709 112.67 307.797 109.086 309.845 105.95C311.893 102.75 314.613 100.254 318.005 98.4622C321.397 96.6062 325.173 95.6782 329.333 95.6782C333.877 95.6782 337.941 96.6382 341.525 98.5582C345.109 100.414 347.925 103.166 349.973 106.814C352.085 110.462 353.141 114.91 353.141 120.158V145.118C353.141 146.142 352.789 147.006 352.085 147.71C351.381 148.414 350.517 148.766 349.493 148.766ZM308.213 148.766C307.061 148.766 306.133 148.446 305.429 147.806C304.789 147.102 304.469 146.206 304.469 145.118V99.9982C304.469 98.8462 304.789 97.9502 305.429 97.3102C306.133 96.6062 307.061 96.2542 308.213 96.2542C309.301 96.2542 310.165 96.6062 310.805 97.3102C311.509 97.9502 311.861 98.8462 311.861 99.9982V145.118C311.861 146.206 311.509 147.102 310.805 147.806C310.165 148.446 309.301 148.766 308.213 148.766Z" fill="#65C18C"/>
<path d="M392.574 149.246C387.646 149.246 383.23 148.094 379.326 145.79C375.422 143.422 372.318 140.222 370.014 136.19C367.774 132.158 366.654 127.614 366.654 122.558C366.654 117.438 367.806 112.862 370.11 108.83C372.478 104.798 375.678 101.63 379.71 99.3262C383.742 96.9582 388.286 95.7742 393.342 95.7742C398.398 95.7742 402.91 96.9582 406.878 99.3262C410.91 101.63 414.078 104.798 416.382 108.83C418.75 112.862 419.966 117.438 420.03 122.558L417.054 124.862C417.054 129.47 415.966 133.63 413.79 137.342C411.678 140.99 408.766 143.902 405.054 146.078C401.406 148.19 397.246 149.246 392.574 149.246ZM393.342 142.526C397.054 142.526 400.35 141.662 403.23 139.934C406.174 138.206 408.478 135.838 410.142 132.83C411.87 129.758 412.734 126.334 412.734 122.558C412.734 118.718 411.87 115.294 410.142 112.286C408.478 109.278 406.174 106.91 403.23 105.182C400.35 103.39 397.054 102.494 393.342 102.494C389.694 102.494 386.398 103.39 383.454 105.182C380.51 106.91 378.174 109.278 376.446 112.286C374.718 115.294 373.854 118.718 373.854 122.558C373.854 126.334 374.718 129.758 376.446 132.83C378.174 135.838 380.51 138.206 383.454 139.934C386.398 141.662 389.694 142.526 393.342 142.526ZM416.286 148.766C415.198 148.766 414.302 148.446 413.598 147.806C412.894 147.102 412.542 146.206 412.542 145.118V128.702L414.366 121.118L420.03 122.558V145.118C420.03 146.206 419.678 147.102 418.974 147.806C418.27 148.446 417.374 148.766 416.286 148.766Z" fill="#65C18C"/>
<path d="M439.687 148.766C438.535 148.766 437.607 148.446 436.903 147.806C436.263 147.102 435.943 146.174 435.943 145.022V99.9982C435.943 98.8462 436.263 97.9502 436.903 97.3102C437.607 96.6062 438.535 96.2542 439.687 96.2542C440.775 96.2542 441.639 96.6062 442.279 97.3102C442.983 97.9502 443.335 98.8462 443.335 99.9982V145.022C443.335 146.174 442.983 147.102 442.279 147.806C441.639 148.446 440.775 148.766 439.687 148.766Z" fill="#65C18C"/>
<path d="M380.85 83.7664C385.175 85.4984 389.583 86.3619 394.058 86.3619C401.289 86.3619 408.688 84.1056 416.175 79.5965C417.708 78.6765 418.202 76.6875 417.282 75.1577C416.362 73.6244 414.373 73.131 412.843 74.051C402.401 80.3366 392.731 81.5479 383.26 77.76C357.816 67.5838 342.626 24.2236 338.894 12.3602C369.305 3.30109 391.707 4.64224 405.509 16.3485C419.49 28.2105 421.354 48.2563 421.231 59.1263C411.529 48.9023 397.291 38.3643 376.387 29.7455C374.735 29.0688 372.842 29.8518 372.16 31.5067C371.479 33.1582 372.268 35.0478 373.922 35.7313C401.123 46.9456 420.599 63.2912 430.243 82.9962C436.196 95.1648 436.727 105.209 436.724 108.5V108.546C436.72 109.237 436.693 109.632 436.693 109.653C436.559 111.344 437.75 112.817 439.391 113.086C439.401 113.091 439.41 113.091 439.417 113.091C439.497 113.105 439.574 113.127 439.655 113.132C439.741 113.143 439.831 113.146 439.92 113.146C439.939 113.146 439.95 113.143 439.962 113.143C439.98 113.143 439.992 113.146 440.006 113.146C440.123 113.146 440.246 113.141 440.368 113.127C442.146 112.93 443.424 111.33 443.227 109.552C443.222 109.526 443.201 109.259 443.196 108.79C443.196 108.694 443.201 108.598 443.201 108.491C443.256 104.997 444.546 93.3436 458.075 80.7158C458.095 80.6952 458.116 80.6764 458.131 80.661C467.218 72.1961 481.807 63.3015 505.203 56.1352C506.918 55.6127 507.874 53.8001 507.35 52.0938C506.827 50.3858 505.018 49.4282 503.309 49.9473C482.668 56.2706 468.403 63.9745 458.548 71.7355C458.543 65.056 460.035 54.1654 468.532 45.983C481.174 33.8197 505.775 31.3404 539.822 38.7602C535.68 48.6162 522.103 77.0308 499.926 86.5162C489.419 91.0098 478.184 90.6467 466.538 85.4438C464.907 84.7088 462.993 85.4438 462.265 87.0782C461.539 88.7091 462.269 90.6193 463.901 91.3491C471.026 94.5339 478.04 96.1273 484.896 96.1273C490.898 96.1273 496.775 94.9041 502.489 92.4611C531.96 79.8369 546.661 39.2449 547.275 37.5257C547.584 36.6622 547.505 35.7029 547.068 34.8943C546.623 34.0856 545.859 33.5066 544.964 33.2942C506.23 24.2298 479.003 26.9349 464.048 41.327C450.915 53.9719 451.698 71.417 452.373 77.1425C446.777 82.6006 443.164 87.9336 440.84 92.6741C439.81 88.9959 438.347 84.9153 436.25 80.5621C434.153 76.2089 431.271 71.3402 427.347 66.2554C428.076 59.3703 430.05 28.7199 409.728 11.4516C393.66 -2.20424 368.151 -3.65197 333.904 7.1361C332.247 7.65862 331.294 9.40093 331.757 11.0764C332.422 13.5005 348.464 70.8055 380.851 83.7696L380.85 83.7664Z" fill="#65C18C"/>
</svg>
