<svg width="108" height="34" viewBox="0 0 108 34" fill="none" xmlns="http://www.w3.org/2000/svg">
<path d="M90.592 0C100.209 0 108 7.6109 108 17C108 26.3891 100.207 34 90.592 34C85.1673 34 80.1506 31.5571 76.873 27.4618C76.7811 27.3474 76.7132 27.2157 76.6732 27.0746C76.6332 26.9334 76.622 26.7857 76.6402 26.6401C76.6585 26.4945 76.7058 26.3541 76.7793 26.2272C76.8529 26.1002 76.9512 25.9894 77.0685 25.9012C77.3076 25.7193 77.6081 25.6376 77.9064 25.6735C78.2047 25.7093 78.4773 25.8599 78.6665 26.0933C80.1003 27.8753 81.9171 29.3115 83.9819 30.2953C86.0467 31.2792 88.3065 31.7854 90.5937 31.7764C98.9492 31.7764 105.724 25.16 105.724 17C105.724 8.84 98.9492 2.2236 90.5937 2.2236C88.3392 2.21493 86.1108 2.70679 84.0694 3.6637C82.028 4.6206 80.2245 6.01869 78.7889 7.7571C78.5967 7.98837 78.322 8.13567 78.023 8.16772C77.724 8.19978 77.4243 8.11408 77.1875 7.9288C77.0713 7.83909 76.9743 7.72691 76.9023 7.59895C76.8303 7.47098 76.7847 7.32984 76.7684 7.18392C76.7521 7.038 76.7652 6.89029 76.8072 6.74957C76.8491 6.60885 76.9189 6.47799 77.0124 6.3648C80.2951 2.3698 85.2455 0 90.5937 0H90.592ZM91.5185 11.6654L96.1204 16.2673C96.5658 16.7127 96.5743 17.4233 96.1391 17.8585L91.646 22.355C91.5402 22.4585 91.4151 22.5401 91.2778 22.5952C91.1405 22.6503 90.9936 22.6777 90.8457 22.676C90.6977 22.6742 90.5516 22.6433 90.4156 22.5851C90.2796 22.5268 90.1564 22.4422 90.0531 22.3363C89.9473 22.2329 89.8629 22.1096 89.8047 21.9736C89.7466 21.8375 89.7159 21.6913 89.7143 21.5434C89.7127 21.3954 89.7403 21.2486 89.7955 21.1113C89.8508 20.9741 89.9325 20.849 90.0361 20.7434L92.666 18.1118L75.139 18.1135C74.9911 18.1153 74.8442 18.0879 74.7069 18.0329C74.5696 17.9779 74.4444 17.8963 74.3386 17.7929C74.2328 17.6895 74.1485 17.5662 74.0904 17.4302C74.0323 17.2941 74.0016 17.1479 74 17C74 16.3863 74.51 15.8882 75.139 15.8882H92.5946L89.946 13.2379C89.8402 13.1345 89.7558 13.0112 89.6976 12.8752C89.6395 12.7391 89.6088 12.5929 89.6072 12.445C89.6056 12.297 89.6332 12.1502 89.6884 12.0129C89.7437 11.8757 89.8254 11.7506 89.929 11.645C90.1424 11.437 90.4296 11.3222 90.7276 11.3257C91.0256 11.3292 91.31 11.4508 91.5185 11.6637V11.6654Z" fill="#362222"/>
<path d="M3.402 14.522C3.702 14.018 4.098 13.628 4.59 13.352C5.094 13.064 5.688 12.92 6.372 12.92V15.044H5.85C5.046 15.044 4.434 15.248 4.014 15.656C3.606 16.064 3.402 16.772 3.402 17.78V23H1.35V13.082H3.402V14.522ZM17.3482 17.798C17.3482 18.17 17.3242 18.506 17.2762 18.806H9.6982C9.7582 19.598 10.0522 20.234 10.5802 20.714C11.1082 21.194 11.7562 21.434 12.5242 21.434C13.6282 21.434 14.4082 20.972 14.8642 20.048H17.0782C16.7782 20.96 16.2322 21.71 15.4402 22.298C14.6602 22.874 13.6882 23.162 12.5242 23.162C11.5762 23.162 10.7242 22.952 9.9682 22.532C9.2242 22.1 8.6362 21.5 8.2042 20.732C7.7842 19.952 7.5742 19.052 7.5742 18.032C7.5742 17.012 7.7782 16.118 8.1862 15.35C8.6062 14.57 9.1882 13.97 9.9322 13.55C10.6882 13.13 11.5522 12.92 12.5242 12.92C13.4602 12.92 14.2942 13.124 15.0262 13.532C15.7582 13.94 16.3282 14.516 16.7362 15.26C17.1442 15.992 17.3482 16.838 17.3482 17.798ZM15.2062 17.15C15.1942 16.394 14.9242 15.788 14.3962 15.332C13.8682 14.876 13.2142 14.648 12.4342 14.648C11.7262 14.648 11.1202 14.876 10.6162 15.332C10.1122 15.776 9.8122 16.382 9.7162 17.15H15.2062ZM23.3636 12.92C24.1316 12.92 24.8096 13.076 25.3976 13.388C25.9976 13.688 26.4656 14.066 26.8016 14.522V13.082H28.8716V23.162C28.8716 24.074 28.6796 24.884 28.2956 25.592C27.9116 26.312 27.3536 26.876 26.6216 27.284C25.9016 27.692 25.0376 27.896 24.0296 27.896C22.6856 27.896 21.5696 27.578 20.6816 26.942C19.7936 26.318 19.2896 25.466 19.1696 24.386H21.2036C21.3596 24.902 21.6896 25.316 22.1936 25.628C22.7096 25.952 23.3216 26.114 24.0296 26.114C24.8576 26.114 25.5236 25.862 26.0276 25.358C26.5436 24.854 26.8016 24.122 26.8016 23.162V21.506C26.4536 21.974 25.9796 22.37 25.3796 22.694C24.7916 23.006 24.1196 23.162 23.3636 23.162C22.4996 23.162 21.7076 22.946 20.9876 22.514C20.2796 22.07 19.7156 21.458 19.2956 20.678C18.8876 19.886 18.6836 18.992 18.6836 17.996C18.6836 17 18.8876 16.118 19.2956 15.35C19.7156 14.582 20.2796 13.988 20.9876 13.568C21.7076 13.136 22.4996 12.92 23.3636 12.92ZM26.8016 18.032C26.8016 17.348 26.6576 16.754 26.3696 16.25C26.0936 15.746 25.7276 15.362 25.2716 15.098C24.8156 14.834 24.3236 14.702 23.7956 14.702C23.2676 14.702 22.7756 14.834 22.3196 15.098C21.8636 15.35 21.4916 15.728 21.2036 16.232C20.9276 16.724 20.7896 17.312 20.7896 17.996C20.7896 18.68 20.9276 19.28 21.2036 19.796C21.4916 20.312 21.8636 20.708 22.3196 20.984C22.7876 21.248 23.2796 21.38 23.7956 21.38C24.3236 21.38 24.8156 21.248 25.2716 20.984C25.7276 20.72 26.0936 20.336 26.3696 19.832C26.6576 19.316 26.8016 18.716 26.8016 18.032ZM32.6108 11.768C32.2388 11.768 31.9268 11.642 31.6748 11.39C31.4228 11.138 31.2968 10.826 31.2968 10.454C31.2968 10.082 31.4228 9.77 31.6748 9.518C31.9268 9.266 32.2388 9.14 32.6108 9.14C32.9708 9.14 33.2768 9.266 33.5288 9.518C33.7808 9.77 33.9068 10.082 33.9068 10.454C33.9068 10.826 33.7808 11.138 33.5288 11.39C33.2768 11.642 32.9708 11.768 32.6108 11.768ZM33.6188 13.082V23H31.5668V13.082H33.6188ZM39.9129 23.162C39.1329 23.162 38.4309 23.024 37.8069 22.748C37.1949 22.46 36.7089 22.076 36.3489 21.596C35.9889 21.104 35.7969 20.558 35.7729 19.958H37.8969C37.9329 20.378 38.1309 20.732 38.4909 21.02C38.8629 21.296 39.3249 21.434 39.8769 21.434C40.4529 21.434 40.8969 21.326 41.2089 21.11C41.5329 20.882 41.6949 20.594 41.6949 20.246C41.6949 19.874 41.5149 19.598 41.1549 19.418C40.8069 19.238 40.2489 19.04 39.4809 18.824C38.7369 18.62 38.1309 18.422 37.6629 18.23C37.1949 18.038 36.7869 17.744 36.4389 17.348C36.1029 16.952 35.9349 16.43 35.9349 15.782C35.9349 15.254 36.0909 14.774 36.4029 14.342C36.7149 13.898 37.1589 13.55 37.7349 13.298C38.3229 13.046 38.9949 12.92 39.7509 12.92C40.8789 12.92 41.7849 13.208 42.4689 13.784C43.1649 14.348 43.5369 15.122 43.5849 16.106H41.5329C41.4969 15.662 41.3169 15.308 40.9929 15.044C40.6689 14.78 40.2309 14.648 39.6789 14.648C39.1389 14.648 38.7249 14.75 38.4369 14.954C38.1489 15.158 38.0049 15.428 38.0049 15.764C38.0049 16.028 38.1009 16.25 38.2929 16.43C38.4849 16.61 38.7189 16.754 38.9949 16.862C39.2709 16.958 39.6789 17.084 40.2189 17.24C40.9389 17.432 41.5269 17.63 41.9829 17.834C42.4509 18.026 42.8529 18.314 43.1889 18.698C43.5249 19.082 43.6989 19.592 43.7109 20.228C43.7109 20.792 43.5549 21.296 43.2429 21.74C42.9309 22.184 42.4869 22.532 41.9109 22.784C41.3469 23.036 40.6809 23.162 39.9129 23.162ZM48.3221 14.756V20.246C48.3221 20.618 48.4061 20.888 48.5741 21.056C48.7541 21.212 49.0541 21.29 49.4741 21.29H50.7341V23H49.1141C48.1901 23 47.4821 22.784 46.9901 22.352C46.4981 21.92 46.2521 21.218 46.2521 20.246V14.756H45.0821V13.082H46.2521V10.616H48.3221V13.082H50.7341V14.756H48.3221ZM61.7154 17.798C61.7154 18.17 61.6914 18.506 61.6434 18.806H54.0654C54.1254 19.598 54.4194 20.234 54.9474 20.714C55.4754 21.194 56.1234 21.434 56.8914 21.434C57.9954 21.434 58.7754 20.972 59.2314 20.048H61.4454C61.1454 20.96 60.5994 21.71 59.8074 22.298C59.0274 22.874 58.0554 23.162 56.8914 23.162C55.9434 23.162 55.0914 22.952 54.3354 22.532C53.5914 22.1 53.0034 21.5 52.5714 20.732C52.1514 19.952 51.9414 19.052 51.9414 18.032C51.9414 17.012 52.1454 16.118 52.5534 15.35C52.9734 14.57 53.5554 13.97 54.2994 13.55C55.0554 13.13 55.9194 12.92 56.8914 12.92C57.8274 12.92 58.6614 13.124 59.3934 13.532C60.1254 13.94 60.6954 14.516 61.1034 15.26C61.5114 15.992 61.7154 16.838 61.7154 17.798ZM59.5734 17.15C59.5614 16.394 59.2914 15.788 58.7634 15.332C58.2354 14.876 57.5814 14.648 56.8014 14.648C56.0934 14.648 55.4874 14.876 54.9834 15.332C54.4794 15.776 54.1794 16.382 54.0834 17.15H59.5734ZM65.7868 14.522C66.0868 14.018 66.4828 13.628 66.9748 13.352C67.4788 13.064 68.0728 12.92 68.7568 12.92V15.044H68.2348C67.4308 15.044 66.8188 15.248 66.3988 15.656C65.9908 16.064 65.7868 16.772 65.7868 17.78V23H63.7348V13.082H65.7868V14.522Z" fill="#362222"/>
</svg>
